<?xml version="1.0" standalone="no"?><!DOCTYPE svg PUBLIC "-//W3C//DTD SVG 1.1//EN" "http://www.w3.org/Graphics/SVG/1.1/DTD/svg11.dtd"><svg t="1766066795538" class="icon" viewBox="0 0 1024 1024" version="1.1" xmlns="http://www.w3.org/2000/svg" p-id="9506" width="128" height="128" xmlns:xlink="http://www.w3.org/1999/xlink"><path d="M0 224v576h1024V224H0z m64 64h896v448h-896V288z m96 86.016v275.968h64V374.016h-64z m98.986667 0v275.968H320v-153.984l29.013333 154.026667h40.96l26.026667-154.026667v154.026667h58.026667v-276.053334H384l-16 132.010667-22.016-131.968H258.986667z m250.026666 0v272h76.970667c41.642667 0 57.258667-6.4 70.016-16 12.757333-6.4 18.986667-22.016 18.986667-38.016v-165.973333c0-19.285333-6.229333-35.669333-18.986667-42.026667-16-6.4-22.016-9.984-69.973333-9.984H509.013333z m197.973334 3.968v272h58.026666s2.730667-19.2 5.973334-16c6.4 0 32.256 12.032 45.013333 12.032 16 0 22.357333 0.213333 32-2.986667 12.757333-6.4 16-15.402667 16-25.045333v-160c0-22.357333-22.741333-38.997333-41.984-38.997333-19.242667 0-37.632 12.629333-44.032 19.029333V377.984H706.986667z m-130.986667 38.016c12.757333 0 26.026667 0.256 26.026667 13.013333v160c0 12.757333-16.384 12.970667-26.026667 12.970667V416z m210.986667 32c3.242667 0 6.997333 3.413333 6.997333 13.013333v136.96c0 6.4-0.597333 13.013333-6.997333 13.013334-3.242667 0-5.973333-3.370667-5.973334-12.970667v-137.002667c0-6.4-0.426667-13.013333 5.973334-13.013333z" fill="#1a1a1a" p-id="9507"></path></svg>