<?xml version="1.0" standalone="no"?><!DOCTYPE svg PUBLIC "-//W3C//DTD SVG 1.1//EN" "http://www.w3.org/Graphics/SVG/1.1/DTD/svg11.dtd"><svg t="1765963536346" class="icon" viewBox="0 0 1024 1024" version="1.1" xmlns="http://www.w3.org/2000/svg" p-id="1638" width="128" height="128" xmlns:xlink="http://www.w3.org/1999/xlink"><path d="M853.333333 128H170.666667c-47.061333 0-85.333333 38.272-85.333334 85.333333v597.333334c0 47.061333 38.272 85.333333 85.333334 85.333333h682.666666c47.061333 0 85.333333-38.272 85.333334-85.333333V213.333333c0-47.061333-38.272-85.333333-85.333334-85.333333z m0.042667 256c-0.042667 0-0.042667 0 0 0h-19.84l-113.792-170.666667H853.333333l0.042667 170.666667zM661.333333 640L426.666667 768v-256l234.666666 128z m-41.130666-256l-113.792-170.666667h110.762666l113.792 170.666667h-110.762666z m-102.570667 0H406.869333L293.077333 213.333333h110.762667l113.792 170.666667zM170.666667 213.333333h19.84l113.792 170.666667H170.666667V213.333333z" p-id="1639" fill="#1a1a1a"></path></svg>